<?xml version="1.0" encoding="UTF-8" standalone="no"?>
<svg
   width="300"
   height="105.63426"
   viewBox="0 0 300 105.63426"
   fill="none"
   version="1.1"
   id="svg30"
   sodipodi:docname="blackhatmea-logo.svg"
   inkscape:version="1.3.2 (091e20e, 2023-11-25, custom)"
   xmlns:inkscape="http://www.inkscape.org/namespaces/inkscape"
   xmlns:sodipodi="http://sodipodi.sourceforge.net/DTD/sodipodi-0.dtd"
   xmlns="http://www.w3.org/2000/svg"
   xmlns:svg="http://www.w3.org/2000/svg">
  <sodipodi:namedview
     id="namedview30"
     pagecolor="#ffffff"
     bordercolor="#999999"
     borderopacity="1"
     inkscape:showpageshadow="2"
     inkscape:pageopacity="0"
     inkscape:pagecheckerboard="0"
     inkscape:deskcolor="#d1d1d1"
     inkscape:zoom="1.6324564"
     inkscape:cx="148.24286"
     inkscape:cy="118.22674"
     inkscape:window-width="1500"
     inkscape:window-height="912"
     inkscape:window-x="-8"
     inkscape:window-y="-8"
     inkscape:window-maximized="1"
     inkscape:current-layer="svg30" />
  <g
     clip-path="url(#clip0_2498_37500)"
     id="g30"
     transform="scale(0.92592593)">
    <path
       d="m 229.4,76.5924 v 15.7809 h 13.8 V 72.9739 c 0,-8.4433 -5.8,-11.9613 -13.4,-11.9613 -6.6,0 -10.7,2.7139 -12.1,4.6237 h -0.1 V 51.1621 h -13.8 v 41.2112 h 13.8 V 78.3012 c 0,-5.0258 2.8,-7.2371 6.4,-7.2371 3.3,0 5.4,1.7087 5.4,5.5283 z"
       fill="white"
       id="path1"
       style="fill:#000000;fill-opacity:1" />
    <path
       d="m 288.1,72.9739 c 0,-9.0464 -5.6,-12.2628 -19.7,-12.2628 -7.3,0 -12.3,0.603 -15.7,2.1108 -3.4,1.6082 -5.1,4.2216 -6,8.3427 h 13.8 c 0.7,-2.9149 3.8,-3.4175 7,-3.4175 3.9,0 6.4,0.9046 6.4,2.9149 0,1.7088 -0.9,2.3119 -3.7,2.5129 l -11.7,0.6031 c -10.2,0.4021 -14.2,4.0206 -14.2,9.5489 0,7.8402 5.9,10.3531 15.2,10.3531 7.4,0 12.1,-1.3067 15.2,-4.2217 0.1,1.1057 0.2,2.1109 0.5,3.0155 h 14.2 c -0.7,-1.0052 -1.3,-2.4124 -1.3,-4.7242 z m -13.8,6.835 c 0,5.2268 -5.1,6.433 -9.8,6.433 -3.4,0 -5.1,-1.3067 -5.1,-3.4175 0,-1.9098 1.2,-2.8145 3.8,-3.0155 4.9,-0.4021 8.9,-0.8041 11.2,-1.3067 v 1.3067 z"
       fill="white"
       id="path2"
       style="fill:#000000;fill-opacity:1" />
    <path
       d="m 25.9,60.9121 c -5.6,0 -9.6,1.4072 -12,4.3222 H 13.8 V 51.0616 H 0 v 41.2112 h 13.4 v -3.2165 h 0.1 c 2.5,2.9149 6.3,4.4227 12.4,4.4227 9,0 17.2,-4.9253 17.2,-16.2835 0,-11.3581 -8.2,-16.2834 -17.2,-16.2834 z m -4.5,23.219 c -5.3,0 -7.6,-2.5129 -7.6,-6.9356 0,-4.4226 2.3,-6.9355 7.6,-6.9355 5,0 7.5,3.0155 7.5,6.9355 0.1,3.9201 -2.1,6.9356 -7.5,6.9356 z"
       fill="white"
       id="path3"
       style="fill:#000000;fill-opacity:1" />
    <path
       d="m 58.9005,51.0618 h -13.8 v 41.2111 h 13.8 z"
       fill="white"
       id="path4"
       style="fill:#000000;fill-opacity:1" />
    <path
       d="m 104.901,72.773 c 0,-9.0464 -5.6004,-12.2629 -19.7004,-12.2629 -7.3,0 -12.3,0.6031 -15.7,2.1108 -3.4,1.6083 -5.1,4.2217 -6,8.3428 h 13.8 c 0.7,-2.9149 3.8,-3.4175 7,-3.4175 3.9,0 6.4,0.9046 6.4,2.9149 0,1.7088 -0.9,2.3119 -3.7,2.5129 l -11.7,0.6031 c -10.2,0.402 -14.2,4.0206 -14.2,9.5489 0,7.8402 5.9,10.353 15.2,10.353 7.4,0 12.1,-1.3067 15.2,-4.2216 0.1,1.1057 0.2,2.1108 0.5,3.0155 h 14.2004 c -0.7,-1.0052 -1.3,-2.4124 -1.3,-4.7242 z m -13.8004,6.9355 c 0,5.2268 -5.1,6.4329 -9.8,6.4329 -3.4,0 -5.1,-1.3066 -5.1,-3.4175 0,-1.9097 1.2,-2.8144 3.8,-3.0154 4.9,-0.4021 8.8,-0.8041 11.2,-1.3067 v 1.3067 z"
       fill="white"
       id="path5"
       style="fill:#000000;fill-opacity:1" />
    <path
       d="m 136.9,79.3064 c -0.9,3.92 -3.8,5.0257 -7.7,5.0257 -5.5,0 -8.2,-3.0154 -8.2,-7.6391 0,-4.0206 2.2,-7.5386 8.3,-7.5386 1.8,0 3.7,0.3015 5,0.9046 1.6,0.8041 2.4,1.9098 2.6,3.8196 h 14.5 c -1.5,-10.1521 -9.2,-13.4691 -22.2,-13.4691 -13,0 -22.7,3.9201 -22.7,16.384 0,12.4638 10,16.585 22.7,16.585 9.5,0 20.8,-1.4072 22.2,-14.0721 z"
       fill="white"
       id="path6"
       style="fill:#000000;fill-opacity:1" />
    <path
       d="m 181.299,73.0744 13.8,-11.3582 h -18.4 l -10.5,9.8504 V 50.9611 h -13.8 v 41.2111 h 13.8 v -6.634 l 4.3,-3.6185 7.2,10.2525 h 18.7 z"
       fill="white"
       id="path7"
       style="fill:#000000;fill-opacity:1" />
    <path
       d="m 93.7996,49.4534 c -0.3,-2.3119 -2.2,-3.9201 -2.2,-3.9201 -2,-1.3067 2.7,-2.3119 2.7,-2.3119 -2,-3.0154 -2.3,-7.7396 -2.3,-7.7396 -20.1,-6.634 -0.9,-9.75 -0.9,-9.75 1.9,-12.7654 4.2,-11.6597 4.2,-11.6597 1.4,-0.201 5.2004,-0.201 8.9004,-0.201 3.7,0 7.5,0 8.9,0.201 0,0 2.3,-1.1057 4.2,11.6597 0,0 19.2,3.116 -0.9,9.75 0,0 -0.3,4.7242 -2.3,7.7396 0,0 4.7,1.1057 2.7,2.3119 0,0 -1.9,1.6082 -2.2,3.9201 0,0 14.1,2.4123 16.3,6.634 4.8,-5.9304 7.6,-13.4691 7.6,-21.6108 C 138.5,15.3788 123.2,0 104.3,0 85.3996,0 70.0996,15.4793 70.0996,34.4766 c 0,8.2423 2.9,15.7809 7.6,21.6108 2,-4.2217 16.1,-6.634 16.1,-6.634 z"
       fill="white"
       id="path8"
       style="fill:#000000;fill-opacity:1" />
    <path
       d="m 321.8,54.4791 c 0,-1.1057 -0.6,-1.3067 -1.6,-1.3067 h -1.9 v 4.9252 h 0.4 v -2.2113 h 1.3 l 1.5,2.2113 h 0.5 l -1.5,-2.2113 c 0.8,-0.3016 1.3,-0.6031 1.3,-1.4072 z m -2,0.9046 h -1 v -1.9098 h 1.4 c 0.7,0 1.2,0.201 1.2,1.0052 -0.1,0.8041 -0.7,0.9046 -1.6,0.9046 z"
       fill="white"
       id="path9"
       style="fill:#000000;fill-opacity:1" />
    <path
       d="m 319.9,51.3632 c -2.3,0 -4.1,1.8092 -4.1,4.1211 0,2.3118 1.8,4.1211 4.1,4.1211 2.3,0 4.1,-1.8093 4.1,-4.1211 0,-2.3119 -1.8,-4.1211 -4.1,-4.1211 z m 0,7.9406 c -2,0 -3.7,-1.6082 -3.7,-3.719 0,-2.1108 1.6,-3.7191 3.7,-3.7191 2.1,0 3.7,1.6083 3.7,3.7191 0,2.1108 -1.7,3.719 -3.7,3.719 z"
       fill="white"
       id="path10"
       style="fill:#000000;fill-opacity:1" />
    <path
       d="M 309.3,81.3166 V 70.5615 h 7.5 v -8.6443 h -7.5 v -9.8504 h -13.8 v 9.8504 h -6.4 v 8.6443 h 6.4 v 12.5644 c 0,8.3427 3.2,9.951 11.6,9.951 4.3,0 7.6,-0.3016 10.1,-0.7036 v -8.1417 c -1.3,0.1005 -2.6,0.1005 -3.7,0.1005 -3,0 -4.2,-0.1005 -4.2,-3.0155 z"
       fill="white"
       id="path11"
       style="fill:#000000;fill-opacity:1" />
    <path
       d="m 17.3,113.984 h -1.9 v -9.448 l -5.1,8.543 c -0.4,0.603 -1,1.005 -1.8,1.005 -0.7,0 -1.4,-0.402 -1.8,-1.005 l -5,-8.543 v 9.448 H 0 v -8.644 c 0,-1.106 0.9,-2.011 2,-2.011 0.8,0 1.4,0.402 1.8,1.106 l 4.8,8.142 4.8,-8.142 c 0.4,-0.603 1,-1.106 1.8,-1.106 1.1,0 2,0.905 2,2.011 z"
       fill="white"
       id="path12"
       style="fill:#000000;fill-opacity:1" />
    <path
       d="m 22.1005,113.984 h -1.8 V 103.43 h 1.8 z"
       fill="white"
       id="path13"
       style="fill:#000000;fill-opacity:1" />
    <path
       d="m 38.9996,111.069 c 0,1.608 -1.3,2.814 -2.8,2.814 h -11 V 103.43 h 10.9 c 1.6,0 2.8,1.306 2.8,2.814 v 4.825 z m -1.9,1.106 v -6.835 h -10.1 v 6.835 z"
       fill="white"
       id="path14"
       style="fill:#000000;fill-opacity:1" />
    <path
       d="m 55.8,111.069 c 0,1.608 -1.3,2.814 -2.8,2.814 H 42 V 103.43 h 11 c 1.6,0 2.8,1.307 2.8,2.814 z M 54,112.175 V 105.34 H 43.8 v 6.835 z"
       fill="white"
       id="path15"
       style="fill:#000000;fill-opacity:1" />
    <path
       d="m 69.9006,113.984 h -8.2 c -1.6,0 -2.8,-1.307 -2.8,-2.814 v -7.64 h 1.8 v 8.645 h 9.2 z"
       fill="white"
       id="path16"
       style="fill:#000000;fill-opacity:1" />
    <path
       d="M 86.2,113.984 H 75.3 c -1.6,0 -2.8,-1.307 -2.8,-2.814 v -4.825 c 0,-1.608 1.3,-2.815 2.8,-2.815 h 10.9 v 1.81 h -12 v 2.513 h 11.9 v 1.809 H 74.2 v 2.513 h 11.9 v 1.809 z"
       fill="white"
       id="path17"
       style="fill:#000000;fill-opacity:1" />
    <path
       d="m 109.3,113.984 h -11 c -1.6,0 -2.8,-1.307 -2.8,-2.814 v -4.825 c 0,-1.608 1.3,-2.815 2.8,-2.815 h 10.9 v 1.81 H 97.3 v 2.513 h 11.9 v 1.809 H 97.3 v 2.513 h 11.9 v 1.809 z"
       fill="white"
       id="path18"
       style="fill:#000000;fill-opacity:1" />
    <path
       d="m 128.801,113.984 h -2.3 l -1.7,-2.513 h -9.5 l -1.7,2.513 h -2.3 l 6.8,-9.549 c 0.4,-0.603 1.1,-1.106 1.9,-1.106 0.8,0 1.5,0.503 1.9,1.106 z m -5.3,-4.322 -3.4,-4.925 -3.4,4.925 z"
       fill="white"
       id="path19"
       style="fill:#000000;fill-opacity:1" />
    <path
       d="m 144.5,111.069 c 0,1.608 -1.3,2.814 -2.8,2.814 h -10.9 v -1.809 h 11.9 v -2.513 h -9.6 c -1.6,0 -2.8,-1.306 -2.8,-2.814 v -0.503 c 0,-1.608 1.3,-2.814 2.8,-2.814 H 144 v 1.809 h -11.9 v 2.513 h 9.6 c 1.6,0 2.8,1.307 2.8,2.814 z"
       fill="white"
       id="path20"
       style="fill:#000000;fill-opacity:1" />
    <path
       d="m 160.1,105.34 h -5.9 v 8.644 h -1.8 v -8.644 h -5.9 v -1.81 h 13.6 z"
       fill="white"
       id="path21"
       style="fill:#000000;fill-opacity:1" />
    <path
       d="m 185.4,113.984 h -2.3 l -1.7,-2.513 h -9.5 l -1.7,2.513 h -2.3 l 6.8,-9.549 c 0.4,-0.603 1.1,-1.106 1.9,-1.106 0.8,0 1.5,0.503 1.9,1.106 z m -5.4,-4.322 -3.4,-4.925 -3.4,4.925 z"
       fill="white"
       id="path22"
       style="fill:#000000;fill-opacity:1" />
    <path
       d="m 201.3,103.43 v 8.644 c 0,1.106 -0.9,2.011 -2,2.011 -0.6,0 -1.1,-0.202 -1.5,-0.604 l -8.6,-8.744 v 9.146 h -1.8 v -8.644 c 0,-1.105 0.9,-2.01 2,-2.01 0.6,0 1.1,0.201 1.5,0.603 l 8.6,8.745 v -9.147 z"
       fill="white"
       id="path23"
       style="fill:#000000;fill-opacity:1" />
    <path
       d="m 218.1,111.069 c 0,1.608 -1.3,2.814 -2.8,2.814 H 204.4 V 103.43 h 10.9 c 1.6,0 2.8,1.307 2.8,2.814 z m -1.8,1.106 v -6.835 h -10.1 v 6.835 z"
       fill="white"
       id="path24"
       style="fill:#000000;fill-opacity:1" />
    <path
       d="m 243.9,113.984 h -2.3 l -1.7,-2.513 h -9.5 l -1.7,2.513 h -2.3 l 6.8,-9.549 c 0.4,-0.603 1.1,-1.106 1.9,-1.106 0.8,0 1.5,0.503 1.9,1.106 z m -5.4,-4.322 -3.4,-4.925 -3.4,4.925 z"
       fill="white"
       id="path25"
       style="fill:#000000;fill-opacity:1" />
    <path
       d="m 259.6,109.662 h -11.9 v 4.322 h -1.8 v -7.639 c 0,-1.608 1.3,-2.815 2.8,-2.815 h 10.9 v 1.81 h -11.9 v 2.513 h 11.9 z"
       fill="white"
       id="path26"
       style="fill:#000000;fill-opacity:1" />
    <path
       d="m 276.5,113.984 h -1.8 v -3.216 h -10.1 v 3.216 h -1.8 V 103.43 h 10.9 c 1.6,0 2.8,1.307 2.8,2.814 v 1.609 c 0,0.904 -0.5,1.608 -1.2,1.909 0.7,0.402 1.2,1.106 1.2,1.91 z m -1.9,-5.026 v -3.618 h -10.1 v 3.618 z"
       fill="white"
       id="path27"
       style="fill:#000000;fill-opacity:1" />
    <path
       d="m 281.3,113.984 h -1.8 V 103.43 h 1.8 z"
       fill="white"
       id="path28"
       style="fill:#000000;fill-opacity:1" />
    <path
       d="m 298.2,113.984 h -10.9 c -1.6,0 -2.8,-1.307 -2.8,-2.814 v -4.825 c 0,-1.608 1.3,-2.815 2.8,-2.815 h 10.9 v 1.81 h -11.9 v 6.835 h 11.9 z"
       fill="white"
       id="path29"
       style="fill:#000000;fill-opacity:1" />
    <path
       d="m 317.201,113.984 h -2.3 l -1.7,-2.513 h -9.5 l -1.7,2.513 h -2.3 l 6.8,-9.549 c 0.4,-0.603 1.1,-1.106 1.9,-1.106 0.8,0 1.5,0.503 1.9,1.106 z m -5.4,-4.322 -3.4,-4.925 -3.4,4.925 z"
       fill="white"
       id="path30"
       style="fill:#000000;fill-opacity:1" />
  </g>
  <defs
     id="defs30">
    <clipPath
       id="clip0_2498_37500">
      <rect
         width="324"
         height="114.085"
         fill="#ffffff"
         id="rect30"
         x="0"
         y="0" />
    </clipPath>
  </defs>
</svg>
