<svg height="316.227766" viewBox="0 0 600 600" width="316.227766" xmlns="http://www.w3.org/2000/svg" xmlns:xlink="http://www.w3.org/1999/xlink"><clipPath id="a"><path d="m179.10001 179.10001h641.90002v641.90002h-641.90002z"/></clipPath><g fill="#027e40" transform="matrix(.93472504 0 0 .93472504 -167.40925 -167.40925)"><path d="m200 625.6.2-249.4 175.8-176.9h249.2l174.3 174.1.5 249.7-178.6 178.2h-245.8zm167-446.5-187.9 187.9v266l188 188h265.9l188-188v-266l-188-187.9z"/><g><path clip-path="url(#a)" d="m477.4 340.9c7.2-.9 11.6-1.8 20.3-1.8v-4.6c-.1-5.5-2.6-8.3-9.3-8 0 0-4.5 1.2-6-.9 0 0 .2 1.5-1.5 3.7-1.2 1.5-3.8 3.1-3.8 3.1s6-1.2 7.4-1.2c2.8 0 8.6-2.2 8.4 3.7h-.1c-2.5.3-7.4.3-16.2 1.9z"/><path clip-path="url(#a)" d="m506.7 325.5h-1.2l.1 20h-.1c-.3 6.8-6.7 3.7-7 3.4 3.2 4.3 10.9 3.7 11.3-3.7l1-22.4s-1.3 2.7-4.1 2.7"/><path clip-path="url(#a)" d="m508.3 315.7c1.5 0 2.9-1.2 3-2.7.2-1.5-1-2.8-2.6-3.1-1.6 0-2.9 1.2-3 2.8-.2 1.5 1 2.7 2.6 3"/><path clip-path="url(#a)" d="m562.2 336.6c-.4 0-.7-.3-1.1-.3l-7 18.8h-.1c-2.6 6.1-7.5.9-7.7.6 1.4 5.2 8.8 7.4 11.8.6l8.8-20.6c.2 0-2 1.8-4.7.9"/><path clip-path="url(#a)" d="m536.3 352c1.6 0 2.9-.9 3-2.8.1-1.5-1.1-2.8-2.7-2.8-1.5-.3-2.9.9-3 2.5 0 1.8 1.2 3.1 2.7 3.1"/><path clip-path="url(#a)" d="m558.6 327.7s-2 3.4-7.5 1.8c0 0 1.4 1.9.7 3.7-.2.6-1.5 4.3-2.8 8.3-6.5-2.2-17.5-4.3-23.1-5.2 0 0 2.4-2.4 3.5-4.9 2.1-4.3 1.2-9.2 1.2-9.2-.2 2.5-1 11.4-15.4 17.5 0 0 9.2-.6 36.9 7.7z"/><path clip-path="url(#a)" d="m628.5 381.1-8.4-8.9c-2.4-2.2-3.5-.9-6.3 1.9l-4.7 5.5 7.2 6.7-4.2 4h-.2c-4.7 4.3-7.1-2.2-7.1-2.5-.8 4.9 5 9.8 10.4 5.2zm-13.3-2.1 1.5-1.2c1.1-1.2 2-1.2 3.2-.3l2.6 2.7-3 3.1z"/><path clip-path="url(#a)" d="m609.8 349.5c1.5 0 2.8-1.2 2.8-2.8.1-1.5-1.2-2.8-2.7-3.1-1.6 0-2.9 1.2-3 3.1.1 1.6 1.4 2.8 2.9 2.8"/><path clip-path="url(#a)" d="m618.5 355.7c1.6 0 2.9-1.2 2.9-2.8s-1.2-2.8-2.8-2.8c-1.5 0-2.9 1.2-2.9 2.8 0 1.5 1.3 2.8 2.8 2.8"/><path clip-path="url(#a)" d="m607.6 352.3c-2.7-1.8-4.2-1.5-6.4 1.8l-3.8 5.9 7.7 5.8-2.1 2.8c-3.1-2.1-12.6-8.6-17.4-11.3l11.7-21.2s-3.5 2.2-8.5 1.2c0 0 1.5.6.6 2.1-.3.3-10.8 21.2-11 21.5-2.6 4.6-6.3 3.7-8 2.8-3.6-1.9-4-5.2-3.5-7.4s1.3-5.8 7.3-8.6c0 0 .9 1.6 2.8.3 1.7-1.2 2.3-4.3 2.3-4.3-2.6 1.5-11.7 5.8-13.7 11.4-2.1 5.5.9 10.4 4.4 11.7 2 .9 8.3 3.1 12-3.4l1.3-2.1c6.1 3.4 11.9 6.7 20.4 13.8l12.8-16zm-4.1 6.7 1-1.8c.9-1.3 1.4-1.3 2.7-.3l3 2.1-2.5 3.4z"/><path clip-path="url(#a)" d="m465.1 319.4c1.5 0 2.7-1.6 2.6-3.1s-1.5-2.8-3.1-2.5c-1.6 0-2.8 1.6-2.6 3.1.1 1.6 1.5 2.5 3.1 2.5"/><path clip-path="url(#a)" d="m437.1 362.7c1.6 0 2.7-1.5 2.6-3s-1.6-2.8-3.1-2.8c-1.5.3-2.8 1.5-2.6 3.1.2 1.8 1.5 2.7 3.1 2.7"/><path clip-path="url(#a)" d="m445.8 358.4c1.5 0 2.7-1.5 2.6-3-.1-1.6-1.5-2.8-3.1-2.5-1.6 0-2.8 1.5-2.6 3.1.1 1.5 1.4 2.7 3.1 2.4"/><path clip-path="url(#a)" d="m466.7 338.4c-4.5.9-9 2.1-9 2.1l-10.2-10.7s-1.5-2.1-4.4-1.9c-1.8.3-5.1 2.1-6.7 3.4-1.7 1.2-2.9 3.4-1.3 5.2l7.9 8.9c-6.5 2.1-12.2 5.2-17.4 7.7 0 0 .5-3.4 0-5.8-.9-4.9-4.6-8-4.6-8 1.4 1.9 5.9 9.6-1.7 23 0 0 8.1-6.7 31.7-15.4l-11.5-12.3c.6-.9 2.5-2.2 4.2-2.2l12 12.9c4.2-.9 10.9-2.5 16-3.4l-2.8-18.1s-.7 3.1-2.6 4.3c-2.1.6-4 1.6-4 1.6s2.5-1.2 3.4 3.1z"/><path clip-path="url(#a)" d="m414 365.5h-3.7c-3.2 0-3.8-2.2-3.8-2.2-.3 2.2-3 3.4-5.7 2.8-2.2-.4-3.9-2.8-4.1-5.9-.1-3.7 3.2-6.1 5.8-4.9-.3 1.2.4 2.4 1.2 2.4 1 .3 2.4 0 2.4-1.5-.1-1.5-1.5-1.9-1.6-1.9-5.2-1.2-10 2.5-10.2 6.8-.2 4 2.6 8 6.2 8-2 1.6-3.9 3.1-5.5 4.6l-16.7-19.1s.6 3.4-1.7 7c0 0 .9-.9 1.9.3.8.9 8.9 9.5 13.3 14.4-1.6 1.5-2.8 2.8-3.7 3.7-.9-.3-1.8-.6-2.8-.6-4-.3-7.5 2.8-7.9 6.7-.1 1.5.3 2.8 1 4-.9 1.2-2 2.8-2.9 3.7l-20-15.4s1.2 3.4-.4 7.4c0 0 .7-1.2 1.9-.3 1.3 1.2 19.3 14.5 19.3 14.5l.9-1.2c.2 0 .5-.3.5-.3.5-.6 2.3-3.1 4-5.2.7.3 1.5.6 2.3.6 4 .3 7.5-2.8 7.8-6.8.2-1.2-.1-2.5-.8-3.7 8.1-8.1 17.9-14.9 23-17.9m-29.7 23.9c-1.5-.3-2.5-1.5-2.4-2.7.1-1.5 1.3-2.5 2.8-2.5 1.4 0 2.5 1.2 2.3 2.8-.1 1.5-1.3 2.4-2.7 2.4"/><path clip-path="url(#a)" d="m358.7 375.9s7.1-4.6 8.9-10.7h1.2s.4 3.1-2.9 6.8c-3.3 3.6-7.2 3.9-7.2 3.9"/><path clip-path="url(#a)" d="m362 378.7s7.1-4.9 8.9-11.1h1.2s.3 3.4-2.9 6.8c-3.3 3.7-7.2 4.3-7.2 4.3"/><path clip-path="url(#a)" d="m471 232.8c-.3-2.4 1.8-2.4 1.8-2.4-6.5-.9-9.6-5.2-9.6-5.2l6 43.6c.2 1.5-.8 2.8-2.2 3.1-1.6.3-2.9-.6-3.1-2.2l-7.2-43.3s-1.8 4.9-7.6 8c0 0 1.9-.9 2.4 1.6.1.9 2.2 11.7 4 21.2-3.5.6-6.9 1.5-10.1 2.5l-2.9-13.8s-1.5 5.2-7.1 8.6c0 0 1.8-.9 2.4 1.5.2.9.8 3.4 1.3 5.2-2.7.9-5.5 1.5-8 2.2l-3.8-13.2s-1.2 4.9-6.6 8.6c0 0 1.7-.9 2.4 1.6.3.9 1.9 5.2 1.9 5.2-2.5.6-5 1.2-7.2 2.2l-4.4-12.6s-1.1 4.9-6.3 8.9c0 0 1.8-.9 2.6 1.2.2.6 8.1 21.8 8.1 21.8.9 2.5-.1 5.9-4.7 6.5-.6 0-1.2-.3-1.9-.6 1.2.9 2.5 1.2 3.9 1.2 4.7 0 10.1-3.7 8.3-9.8l-3.4-10.1c10.9-4.3 23.7-7.7 36.5-10.2.8 4 1.5 6.7 1.5 6.7.6 3.7 3.7 6.5 7.3 7.1 2 0 2.7 2.8 2.7 2.8 0-1.5.9-3.1 1.4-3.7 3.5-1.2 5.7-4.6 5.4-8.3l-.1.3c.1-.3-3.5-34.7-3.7-36.2"/><path clip-path="url(#a)" d="m556.9 231.9c2.2 0 3.8-1.8 3.8-4s-1.7-3.7-3.8-3.7-3.8 1.5-3.8 3.7c0 2.1 1.7 4 3.8 4"/><path clip-path="url(#a)" d="m686.2 345.5-3.8-4.9 27.2-23.9s-1.6 4.9.9 11.1c0 0-1-1.8-2.9-.3-1.6 1.4-21.4 18-21.4 18"/><path clip-path="url(#a)" d="m323.5 338.7-4 4.9-27.7-23.9s5.1.9 10.8-2.5c0 0-1.6 1.2.2 3.1z"/><path clip-path="url(#a)" d="m418.8 241.7c2.1 0 3.7-1.9 3.7-4 0-2.2-1.7-3.7-3.7-3.7-2.1 0-3.7 1.5-3.7 3.7s1.6 4 3.7 4"/><path clip-path="url(#a)" d="m421.9 251.2c2.1 0 3.8-1.5 3.8-3.7s-1.7-4-3.8-4-3.8 1.9-3.8 4c.1 2.2 1.8 3.7 3.8 3.7"/><path clip-path="url(#a)" d="m447 284.7c2.1 0 3.7-1.5 3.7-3.7 0-2.1-1.6-4-3.7-4s-3.8 1.9-3.8 4c0 2.2 1.7 3.7 3.8 3.7"/><path clip-path="url(#a)" d="m265.3 457.9c1.8-11 2.9-16 6.6-28.5l-6.5-2.2c-5.4-1.2-14.4.6-16.4 9.2 0 0-1 8-4 8.3 0 0 2 .6 4.3 3.9 1.5 2.1 2.5 6.8 2.5 6.8s1.8-8.9 2.3-11c1.3-4 1.3-13.5 9.5-10.1-.9 3.7-3 9.2-5.1 22.4z"/><path clip-path="url(#a)" d="m394.7 259.5s-.5 4.3-4 6.1c-8.3 4-9.1 10.2-6.8 15l3.9 7.7 10.3-5.2 3.4 7.4.1.3c3.6 8-6 8.3-6.6 8 6.4 3.4 15.6-1.8 11.6-11.1zm-4.8 20c-1.1-1.9-1.5-3.4-.9-4.9.5-1.2 3.6-3.1 3.6-3.1l2.5 5.5z"/><path clip-path="url(#a)" d="m327.7 302.8s.8 4.3-1.9 7.1c-6.7 6.5-5.6 12.6-1.9 16.6l6.1 6.1 8.1-8.6 5.5 6.2h.1c5.9 6.8-3.2 10.1-3.9 10.1 7.2.9 14.3-6.7 7.7-14.4zm1.6 20.6c-1.6-1.6-2.5-2.8-2.4-4.3s2.5-4.3 2.5-4.3l4.1 4.3z"/><path clip-path="url(#a)" d="m365.3 269c-1.2-2.2.7-2.8.7-2.8-6.3 1.6-10.8-.9-10.8-.9l15.2 25.5c-4 2.5-10.2 7-16.3 11.7 0 0-1-5.5-2.5-7.7-2.5-3.7-6.7-4.9-6.7-4.9 2.5 2.5 9.1 10.4 2.7 26.1 0 0 6.1-6.7 31.5-22.7 0 0-12.6-22.1-13.8-24.3"/><path clip-path="url(#a)" d="m582.5 234.9s-3.1 3.1-6.8 1.9c-9-2.1-13.6 1.8-15 7.4l-1.8 8.3 11.3 2.8-4.5 15.7s-.8 5.8-3.8 5.2c-3-.9-1.3-6.2-1.3-6.2l2.1-9.5s-12.3-2.8-14-3.1c0 0 1.8-7.7-2.3-12.9-3.8-5.2-7.5-5.2-7.5-5.2l1.9-14.2s-2.8 6.8-10.6 6.5h-.1c-.1 0-.1 0 0 0 1.1.3 3.5.9 3 4.3l-.3 2.7s-4.8-.6-9.8 3.7c-4.1 4-4.4 11.1-4.4 11.1s-3.5-.3-4.6-.3l.1-5.2c-.4-4.3-4.3-9.2-12-9.5 0 0-8.5.9-10.6-2.2 0 0 0 2.8-1.8 4.6-2 2.1-5.1 3.3-5.1 3.3s8.6-.6 10.7-.3c7.2.6 13.2-1.5 13.1 8.6 0 .3-23.6.9-23.6.9l.4 6.7s21.9-1.6 33.3-.3v8.6s.3 8 7.3 8.6c8.1.6 9-7.1 9-7.1l1.2-8.3c4.2.9 13.1 2.5 19.8 4l-.9 5.8s-1.6 7.1 4.7 9.8c.7.9.6 2.2.4 2.8 0 0 .8-1.5 2.2-2.1 4.8.6 6.8-2.2 8-6.4-.2.1 11.6-38.3 12.3-40.5m-53.4 34.7s-.3 2.2-2.8 2.2c-1.8 0-2.8-2.8-2.8-2.8l.3-8.6 6.3.6zm1.8-15.3-6.4-.6c.4-4.6 2.8-8.9 7.5-8.9zm12.4 2.1-6.4-1.2 1.1-9.8c2.4.9 4.4 2.7 5.3 4.6.9 2.4 0 6.4 0 6.4m22.8-9.5c.6-2.2 1.1-3.4 2.5-4.3 2.1-.9 5.2.3 5.2.3l-1.7 5.8z"/><path clip-path="url(#a)" d="m238.3 471.1c4.4 2.1 6.1 4.3 6.1 4.3 4.9-4.3 12.5-1.5 12.7 4.3.1 7.4-5.7 8-7.5 8-2.1 0-5.3.3-12.4-7.1-7.7-7.7-11.3-5.2-12.7-3.7h.1c-.5.6-.8 1.2-.8 2.1.1 1.9 1.6 3.4 3.6 3.4 1.8-.3 3.4-1.9 3.3-3.7 0-.6-.2-.9-.5-1.5 1.7.3 2.5.9 5.7 4.6 6.9 7.3 11.6 8.9 15.1 8.6 4.8 0 11.5-4.6 11.3-12.3-.2-9.2-9.2-12.3-12.8-12-7.5.1-11.2 5-11.2 5"/><path clip-path="url(#a)" d="m690.8 305.3s1.7 1.2-.1 3c-2.6 2.5-14.9 15.4-14.9 15.4-1.1-.9-3.2-3.1-5.9-5.2.3-.9.6-2.1.6-3.1 0-2.2-1.6-5.8-1.6-5.8-1-1.6.1-3.7.1-3.7s-1.6 1.6-4 .6c-1.3-.6-2.7-.9-4.2-1.2-1.8 0-3.5.6-4.9 1.5-1.8-1.2-8-5.8-8-5.8l17.8-24.9s-4.8 2.2-10.9 0c0 0 1.8.9.5 2.8-1.1 1.5-18.5 27.6-18.5 27.6-.8 1.2-2.4 1.8-3.7.9-1.2-.9-1.6-2.5-.7-3.7l9-14.4c2-2.8 2.4-8.9-3.8-12.6-5-3.1-27.5-14.4-40-19l33 7.1c4.2 1.2 4.9 2.8 5.2 3.4 0 0 1.6-5.5 10.7-4.9l-53.6-11.6-3.3 9.5c9.9 3.4 27.8 11.7 38.5 17.2 4.7 2.7 10.4 4.6 5.2 12.6 0 0-21.3-13.5-43.1-21.8 0 0-4.6-1.2-4.8-3.7 0 0-1.1 6.1-9.9 5.2 0 0 26.2 7.1 54.5 25.5l-2.6 4.3c-2 3.4-1.6 7.4.7 10.5 1.3 1.2.3 3.7.3 3.7.9-1.2 2.5-1.6 3.3-1.6 3.5 1.6 7 .6 9.3-2.4l3.6-4.9s1.4 1.2 3.4 3.1c.8.6 2.1 1.6 3.7 2.8-.5 1.2-.8 2.4-.8 3.7 0 5.5 4.4 9.8 9.8 9.8 1.9 0 3.5-.3 4.9-1.2 2 1.8 3.4 3.1 3.6 3.1l5.9 6.1 26.4-25.5c0-.3-5 .9-10.7-2.4m-30.1 14.1c-2.2 0-4-1.8-4-4.3 0-2.2 1.9-4 4.1-4s4.1 1.9 4.1 4.3c-.1 2.2-1.8 4-4.2 4"/><path clip-path="url(#a)" d="m729.1 476.9c2 0 3.7-1.8 3.7-4 0-2.1-1.6-3.7-3.7-3.7s-3.8 1.5-3.8 3.7 1.7 4 3.8 4"/><path clip-path="url(#a)" d="m757.2 463.1c-2.2-1.5-4.8-4.9-4.8-4.9s1.5 8.3 1.6 10.4c.3 4.6 3.4 13.2-5.5 13.2v-.3c-1.3-15.7-5.5-36.2-5.5-36.2-.1-.3 28.5-7.4 28.5-7.4s-4.9-1.9-8.2-7.4c0 0 .2 2.1-2.1 2.7l-26.3 6.7c.5 1.9 1 3.7 1.5 6.2 2.2 9.2 4.5 22.7 5.9 43l6.7-.3c5.6-.6 13.2-4.9 12.3-13.8 0 0-1.9-6.1 1.1-9.8.1.1-1.9.4-5.2-2.1"/><path clip-path="url(#a)" d="m720.1 339.4c2.1 0 3.8-1.5 3.8-3.7.1-2.1-1.5-4-3.6-4-2 0-3.7 1.6-3.8 3.7s1.5 4 3.6 4"/><path clip-path="url(#a)" d="m729 352c2 0 3.7-1.5 3.8-3.7s-1.5-4-3.6-4-3.8 1.5-3.8 3.7c-.1 2.1 1.5 4 3.6 4"/><path clip-path="url(#a)" d="m750.1 421c-2.2-5.8-8-12.9-16.7-8.9-.9-2.5-6.8-15.4-8-18.4 3.6.3 9.2 5.2 9.2 5.2s4-3.7 3.1-9.2c0 0 1.3-1.9 1-3.4-.7-4 1.2-4.9 1.2-4.9s-2.3.9-4.8-2.1c-.9-.9-3-1.2-3-1.2-5.7-5.2-10.9-2.5-10.9-2.5 1.1 4-.6 9.2-.6 9.2-6.6-11.4-10.6-17.8-10.6-17.8l7.2-4.9 11.9-7.7s-5.1 0-10.1-4.3c0 0 .9 1.9-1.1 3.1-.4.3-1.1.6-2 1.2-5.9-7.4-12.5-10.7-23.4-1.8 7.2 9.2 17.5 26.4 23.4 37.5l3.5 1.5-.8 3.7c8.7 17.5 14.5 36.6 14.5 36.6l21.9-6.4c.3-.1-3.5-.8-4.9-4.5m-23.9-40.5s3.6.3 5.7 4.6c1.8 4 .4 7 .4 7s-1.8-1.8-6.8-3.4c0 .1 1.1-2.7.7-8.2m-24.4-25.5c3.9-2.4 6.8-.3 8.9 3.1l-4.4 3.4zm35.6 69.4-2.1-6.1c2.2-1.3 3.8-1.6 6.1-.3 2.3 1.2 3.2 4.3 3.2 4.3z"/><path clip-path="url(#a)" d="m314.6 349.2-27.6-23.7s1.7 4.9-.8 11.1c0 0 1-1.8 2.8-.3l16.7 13.5-5.2 6.8h.1c-.7 0-1.5-.3-2.3-.3-2.7 0-5.1 1.2-6.8 2.7-1.2.6-3 0-3 0s1.3 1.6.9 3.1c-.6 1.2-.9 2.5-.9 4 0 2.1.8 4.3 2.1 5.8-1.5 2.8-7.2 12-7.2 11.7-.2-2.5.3-8.3.3-8.3-3.4-1.9-7.8-.9-11.3 2.1-1.5-.3-3.2.9-4.4 2.7-1.4.9-3.2.3-3.2.3s1.5 1.6 1.4 3.1c-.5 1.8-.5 3.4.2 4.6-.6 4.6 1 8.9 4.5 10.8 0 0 3.5-3.1 7.1-4.6 0 0-4.2 9.2-6.2 15l-27.5-10.3s3.2 4 2.9 10.4c0 0 .3-1.8 2.5-1.2 2.2.9 26.4 9.2 26.4 9.2s6.7-16.9 9.1-22.4l-1.2-4 4.2-1.2c2.7-5.2 5.2-9.8 7.4-13.5l.4-.9c.7.3 1.4.3 2.1.3 5.3 0 9.7-4.3 9.8-9.5 0-2.2-.7-4-1.8-5.5zm-38.7 40.2c-2.2.9-3.5 2.8-3.5 2.8-1.3-3.1-.8-5.8.2-7.7 1-1.8 3.6-4.3 6-4.6 0 0-.3 2.5-.2 4.6.2 1.5.5 3.7.5 3.7s-1.8.6-3 1.2m22.3-19.3c-2.1 0-3.9-1.8-3.9-4s1.8-4 4-4 4 1.9 4 4c-.1 2.1-1.9 4-4.1 4"/><path clip-path="url(#a)" d="m720 667.8-21.8-16.3 1.8-2.1-3.8-2.7-1.6 2.1-8.4-6.4-2.8 3.4 8.4 6.8-3.1 4c-1.3 1.5-3.7-.6-3.7-.6l-13.7-11.3c-2.2-1.5-1.4-3.4-1.4-3.4l5.5-7.1-3.6-2.8s-6.4 8-6.6 8.3c-3 3.4.8 6.2.8 6.2l17 14.7c2.5 2.1 3.7 1.5 4.9.6-1.9 2.8 1.2 4.6 1.2 4.6l16.3 14.4s3.4 2.4 6.2-1.2zm-7.3 3c-.2.3-2.1 2.8-2.1 2.8-2.2 2.2-4.1.6-4.1.6l-12.5-10.7c-2.2-1.8-2.5-2.4-1.8-3.4l3.4-4.6 15.3 12.3c1 .9 2.9 1.5 1.8 3"/><path clip-path="url(#a)" d="m733.8 506.4-13.8-.6c-2.5 0-4.4 1.2-4.5 7.7-.7 6.5 1 7.4 4.1 8l18.9 1.5s1.9.6 5.1-3.7l4.8-6.7c1.4-1.6 3.2-1.3 7.6-1l11.9.6c1.4.3 3 .6 2.9 2.4l-.5 4.3c-.1 1.9-1.2 2.5-3.3 1.9l-12.8-1.2-.3 4.9 16.6 1.8c3.9 0 5.2-2.7 5.2-5.2l.6-8.3c.1-3.7-2.1-5.2-5.8-5.5l-18.6-.6c-3 0-5.1 0-6 1.5l-5.5 7.4c-2.6 3.7-4.1 2.4-4.1 2.4l-12.6-.6c-3 0-3.9-.9-3.5-4 .3-3.1.6-3.7 4.1-3.4l9 .6z"/><path clip-path="url(#a)" d="m731.8 577.1-1.5 4-22.6-8 1.4-4.3-4.2-1.6-2.9 8.3 56.6 21.5 3.9-10.7-5.2-1.6-1.9 5.5-20.5-7.3 1.4-4.3z"/><path clip-path="url(#a)" d="m773.2 541 1.6-11.7-4.5-.3-.8 6.5-55.3-7.4-.7 4z"/><path clip-path="url(#a)" d="m679.6 620.5 50.4 33.4 3.2-4.2-32-20.6 35.3 14.4-30.2-24 33.2 18.8 2.7-4.3-53.2-29.2-2 3.7 24.3 20-29.3-11.7z"/><path clip-path="url(#a)" d="m744.1 563.5 23.2 6.1 1.5-5.2-24.9-6.2s-3.4 0-4.2 1.8c-.2-1.2-.6-3.7-3.7-3.7l-21-4.9s-4.9-1.9-5.8 2.1l-3.4 11 57.9 18.4 1.6-5.2-26-7.7 1.5-5.5c.4-1.6 1.7-1.3 3.3-1m-9.8 5.2-22.4-6.4 1.2-4.6s0-2.5 2.6-1.6c2.8.9 17.9 4.6 17.9 4.6s3.1.6 2.5 2.8z"/><path clip-path="url(#a)" d="m756.6 601.8-56.2-22.8-1.8 4 31.3 13.2-33.7-7.6-1.6 4 54.8 26.4 2.3-4.9-40.9-18.5 43.7 11.1z"/><path clip-path="url(#a)" d="m771.5 548.2.8-4.6-60.5-4.9-1 4.6 58 18.4 1.2-5.2-13.8-3.7 1.2-5.8zm-19 3.6-30.3-8.6 31.3 3.4z"/><path clip-path="url(#a)" d="m287.9 528.9-59.7 7.6-.6-5.5 59.8-6.5z"/><path clip-path="url(#a)" d="m231.8 559.3 59.7-13.3-.8-3.6-37.4 7.3 36.3-13.7-.7-4.1-59.9 8.9.8 4.9 42-7-40.7 15.6z"/><path clip-path="url(#a)" d="m286.6 511.7-.1-4-60.5 1.8.1 5.3 23.5-1.6-22.6 10.4.4 5.3 28.7-13.9 31.2 7.7-.5-4.3-24-5.8z"/><path clip-path="url(#a)" d="m261.5 576.1-2.4-8.3-4.4 1.2 1.1 3.7-11.2 3.7c-1.7.3-3.7-.6-4.2-2.4l-.8-3.7c-.6-2.2 1.4-2.8 3.1-3.1l42.3-11c2.9-.6 3.9-.6 4.9 3.4.8 3.1-.9 4-3.2 4.3l-12.5 3.7 1.2 4.3 16-4.9c3.3-.9 5-2.1 3-8.9-1.6-6.4-3-7.4-7-6.4l-48.2 11.3c-3.9 1.2-5.8 2.7-4.8 7.4 0 0 1.4 7.4 5.7 7.1l-3.1.9 1.6 5.2z"/><path clip-path="url(#a)" d="m635.5 668.3 31.6 40.2c1.7 2.5 2.1 3.7.9 4.9l-2.8 2.4c-1.9 1.2-3.4 0-4.9-2.1l-30.5-41.1-3.4 2.4 32.3 45.4c1.7 2.8 4.4 3.1 6.4 1.6l7.8-6.2c2.3-1.9 3.9-3.4 1.5-6.8l-35.9-43.3z"/><path clip-path="url(#a)" d="m498.6 720.2c.1-3.1-.6-5.2-7.5-5.5-6.8-.6-8.2 1.2-8.4 4.6l-4.8 50.4c-.2 3.7 2.8 5.2 6.6 5.2l7.3.3c3.7.3 5.7-1.2 5.9-4.9zm-9.3 50.4-3.8-.3c-1.9 0-2.4-2.2-2.3-4l3.2-43.3c.3-2.8.7-4 4.6-3.7 3.1.3 3.5 1.2 3.4 4l-1.5 44.2c-.2 1.8-1.8 3.1-3.6 3.1"/><path clip-path="url(#a)" d="m606.9 693.5c-1.6-2.8-3.2-4.3-9.4-1.2-6.2 2.8-6.4 5.2-5 8.3l20.6 46.1c1.7 3.4 5 3.1 8.4 1.5l6.6-3.4c3.4-1.9 4.1-3.7 2.5-7.1zm16.7 48.5-3.5 1.5c-1.7.6-2.8-.6-3.7-2.4l-18.8-39.3c-1.2-2.8-1.3-3.7 2.2-5.5 2.8-1.2 3.7-.6 5 2.1l19.7 39c.9 1.5.8 3.7-.9 4.6"/><path clip-path="url(#a)" d="m512.1 715-9.1.3-.1 60.5h5.1l-.4-27 4.3-.4-.1-5.2-4.2.3-.6-23.6h5.3z"/><path clip-path="url(#a)" d="m549 738-4.6-23s-.7-4.3-4.7-3.4l-11.4 2.2 7.1 59.6 5.6-.9-3.8-26.7 9-1.9c0-.1 4-.1 2.8-5.9m-7.1 1.5-5.6 1.2-3-23.3 3.7-.6c1.8-.6 3.1 0 3.3 1.2l3.4 18.5s.4 2.7-1.8 3"/><path clip-path="url(#a)" d="m561.5 736.2-4.2.9-5.4-23.4 4.8-1.2-1.1-4.6-9 2.5 12.5 59.2 11.6-3-1-4.3-6.2 1.5-5.1-21.8 4.2-1.2z"/><path clip-path="url(#a)" d="m639.3 700.8-3.8 2.8-13.4-20.3 4.9-3.4-2.4-3.6-8.2 5.5 32.3 51.6 10.2-7.1-2.5-3.7-5.7 3.7-12.7-18.7 3.8-3.1z"/><path clip-path="url(#a)" d="m636.8 740.1 10.2-5.8-2.5-4.3-5.6 3.4-28-48.2-3.5 2.1z"/><path clip-path="url(#a)" d="m559.3 712.2 4.4-1.5 15.9 53.4 5.1-1.5-16.8-53.2 4-1.2-1.3-4.3-12.6 3.7z"/><path clip-path="url(#a)" d="m641.6 663.4 39.3 45.7 4-3.7-24.9-28.5 29.6 24.5-22.1-32.2 26.7 27.3 3.8-3.6-43-42.7-3.2 3 17.6 26.5-24.2-19.7z"/><path clip-path="url(#a)" d="m596.9 732.8 8.9 22.1 5.1-1.9-10.5-24.8s-1.5-1.2-3.5-.9c.8-.9 2.6-2.5.6-5.2l-8.4-19.6s-1.5-5.2-5.2-3.4l-11 4 19.9 57.4 5.1-1.8-9.4-25.8 5.3-1.9c1.8-1 2.4.2 3.1 1.8m-10.1-4.6-8.1-21.8 4.2-1.9s2-1.5 3 1.2c1 2.5 6.9 17.2 6.9 17.2s1.2 2.4-.9 3.1z"/><path clip-path="url(#a)" d="m416.5 717.1 5.2-12.6c.9-2.5.5-4.6-5.7-7.1-5.6-2.7-7.2-1.5-8.7 1.5l-8.1 16.9s-1.1 1.8 1.7 6.2l4.6 6.7c1.4 2.4.4 3.4-.5 5.2l-5.9 13.5c-.6 1.3-1.7 2.5-3.5 1.6l-3.8-1.8c-1.7-.6-1.4-1.8-.4-4l5.3-11.3-4.4-2.2-7.3 15.3c-1.4 3.4.8 5.5 3 6.5l7.5 3.4c3.5 1.5 6.1.3 7.5-3.1l7.1-17.8c1.1-2.8 1.6-4.6-.2-7.1l-4.4-6.5c-2.7-4-1.2-4.9-1.2-4.9l5.2-11.4c1.3-2.8 2.5-3.1 4.9-2.2 2.8 1.2 3.3 1.9 2 5.2l-3.7 8.3z"/><path clip-path="url(#a)" d="m344.2 646.5-38.4 35.6c-1.9 1.9-3.1 2.4-4.4 1.2l-2.9-3.7c-1.3-1.2-1-2.4 1-4.3l39.8-34.1-2.5-3.1-42.8 35.6c-2.3 2.2-2.3 4.6-.6 6.5l5.5 6.1c2.6 3.1 4.7 3.7 7.5 1.2l40.5-38.4z"/><path clip-path="url(#a)" d="m372.7 707.3-3.4-2.5 13.2-19.6 4.7 3.1 2.5-4.1-8.1-5.1-34.7 49.4 10.4 7 2.3-4-5.8-3.7 12.7-18.7 3.5 2.2z"/><path clip-path="url(#a)" d="m433.3 709.5 5.1 1.5-16.2 53.4 5 1.6 15.2-54.1 5.3 1.2 1.1-4.3-14-4z"/><path clip-path="url(#a)" d="m383.9 724.5-10.3 19.6 4.9 2.5 11.2-22.1c1.9-3.7 0-4.9-.7-5.5 1.1 0 3.3.6 4.6-1.9 2.8-4.9 10.1-19.6 10.1-19.6s2.4-4.3-1.1-6.1l-10.1-5.5-30.9 51.9 4.5 2.8 13.6-23.7 3.3 2.2c2.9 1.7 1.7 3.9.9 5.4m-1.8-12 11.6-20.3 4.2 1.9c2.2 1.2.6 3.1-.2 4.3l-8.3 15.7s-.7 2.1-2.7 1.3z"/><path clip-path="url(#a)" d="m431.8 703.6-19.2 57.4-5.3-1.5 21-57.1z"/><path clip-path="url(#a)" d="m366.2 667.7-38.2 46.7-3.8-3.1 39-46.4z"/><path clip-path="url(#a)" d="m319.7 707 39.7-44.9-2.9-3-22.8 24.9 18.4-28.9-2.5-2.8-42.9 42.7 3.5 3.4 28.9-29.8-23.2 35z"/><path clip-path="url(#a)" d="m450.3 743.5-5.9 26.4 5.3.9 5-26.3 11.8-32.3-4.6-.6-7.3 23 1.3-24.2-4.6-1z"/><path clip-path="url(#a)" d="m347.8 708.2 23.5-36.5-3.6-2.8-32 51.6 3.6 2.8 40.5-45.5-3.6-2.8z"/><path clip-path="url(#a)" d="m253.6 620.4 2.2 4.3 51.7-31.6-2.1-4.3-57.4 19 2 4.9 13.3-5.2 2.5 5.5zm13.5-14.2 29.6-10.8-27.4 15.4z"/><path clip-path="url(#a)" d="m287.2 617.3 25.4-13.8-1.5-3.4-53.9 27.3 2.3 5 23.7-13.2 3.8 6.7-23.2 13.5 2.4 4.3 51.8-31.3-2.2-3.4-25.1 14.8z"/><path clip-path="url(#a)" d="m324.4 631.1s4.7-1.8 1.4-6.8c-3.2-5.2-5.4-8.2-5.4-8.2l-51 32.5 7.8 11.4s2.7 4.3 7 .9c4.1-3.4 40.2-29.8 40.2-29.8m-46 22.4-2.4-3.4 43.5-29.2s1.9 2.8 2.9 4.3c1.2 1.8-1.8 3.1-2.4 3.7-.5.6-33 23.1-37.2 26.1-2 1.3-2.7 1-4.4-1.5"/><path clip-path="url(#a)" d="m299.9 588.1 4.4-1.8-3.7-9.5-56.5 21.2 1.6 4.6 25.3-9.9 1.9 4.3 4.4-1.8-1.8-4.6 21.7-8.3z"/><path clip-path="url(#a)" d="m480.9 399.5 2.4 16.3 6.1-1.8-1.6-18.1z"/><path clip-path="url(#a)" d="m483.7 418.9 1.3 14.1 5.3-.6-.6-15.4z"/><path clip-path="url(#a)" d="m487.2 367.6 14.2-2.1-.1 25.5-10.9.6z"/><path clip-path="url(#a)" d="m480.4 396.5 7.4-4-3.3-23.7-9.1 5.9z"/><path clip-path="url(#a)" d="m492.2 413.1h9.1v-19.4l-10.6.6z"/><path clip-path="url(#a)" d="m493.1 432.1h8.4v-16h-8.8z"/><path clip-path="url(#a)" d="m524.5 399.5-2.3 16.3-6.1-1.8 1.5-18.1z"/><path clip-path="url(#a)" d="m521.8 418.9-1.3 14.1-5.4-.6.7-15.4z"/><path clip-path="url(#a)" d="m518.3 367.6-14.2-2.1v25.5l10.9.6z"/><path clip-path="url(#a)" d="m525.1 396.5-7.4-4 3.2-23.7 9.2 5.9z"/><path clip-path="url(#a)" d="m513.3 413.1h-9.2v-19.4l10.6.6z"/><path clip-path="url(#a)" d="m512.5 432.1h-8.4v-16h8.8z"/><path clip-path="url(#a)" d="m488.1 586-4.8 4.6h38.8l-4.9-4.6h-.2v-1.2c0-7 2-9.5 3.1-10.7v-138.3l-5.1-.3v150.5h-5.5v-2.5c0-5.5 1.3-8.6 2.7-10.1l-.1-138.2h-8.1v137.9c1.6 1.8 3.2 4.6 3.2 10.7v2.2h-9v-2.2c0-6.1 1.6-8.9 3.2-10.7l-.1-137.9h-7.9l-.1 138.2c1.4 1.5 2.8 4.6 2.8 10.1v2.5h-5.7v-150.5l-5.2.3v138.2c1.2 1.2 3.1 3.7 3.1 10.7v1.2h-.2z"/><path clip-path="url(#a)" d="m540.5 565.1s-1 .9-2.5 3.7c0 0 7.7 5.8 7.4 20 .1-.1 4-15.1-4.9-23.7"/><path clip-path="url(#a)" d="m568.4 565.4c0 1-.3 2.5-3.2 2.5-3.1 0-3.3-3.1-3.3-3.1-.9 2.1-2.1 3.1-3.9 2.7-1.9.3-3-2.2-3.7-2.5l-.7.9c-.3.6-.8.8-1.7 2.4 0 0 7.6 6.2 7.5 20.3 0 0 2.4-9.5-1-17.8 3.7 0 3.6-2.8 3.6-2.8s.3 2.4 3.6 2.4c3.1.2 3-3.8 2.8-5"/><path clip-path="url(#a)" d="m605.1 565.4c0 1-.4 2.5-3.2 2.5-3.1 0-3.3-2.8-3.3-2.8-.9 2.2-2.2 2.8-3.9 2.8-1.9 0-3.1-2.2-3.7-2.8l-.7 1.3c-.5.6-.9 1-1.7 2.4 0 0 7.6 5.8 7.5 20 0 0 2.3-9.2-1-17.5 3.7 0 3.6-3.1 3.6-3.1s.3 2.4 3.6 2.4c2.9 0 2.9-3.7 2.8-5.2"/><path clip-path="url(#a)" d="m605 565.1s.1 0 .1.3c0-.3-.1-.3-.1-.3"/><path clip-path="url(#a)" d="m578.5 565.4s-.5 10.4-8 19.4l1.8 4.3s6.2-7.4 6.2-17.2c0 0 1 11.4 7.8 17.2l1.1-4.3c-7.2-7.7-8.9-19.4-8.9-19.4"/><path clip-path="url(#a)" d="m415.6 575.8c-.5-.6-.8-1.8-.8-3.1 0-1.8.4-3.1 1.3-3.7.6-.6 1.3-.6 2.1-.6 1.1 0 2 .3 2.7 1.2.6.6.9 1.8.9 3.1 0 1.5-.5 2.8-1.5 3.7-.6.3-1.2.3-1.8.3-1.5.1-2.3-.3-2.9-.9m-3.5 2.8c1.6 1.5 3.2 2.1 5 2.1 1.3 0 2.4-.3 3.3-.9.5-.3.9-.6 1.3-1.2-.1 1.8-.2 3.4-.6 4.3-.6 1.5-1.7 2.5-3.2 2.5-.8 0-1.5-.3-2-.6s-.8-.9-.9-1.8h-4.7c.2 2.1 1 3.7 2.4 4.6 1.5 1.2 3.1 1.9 4.9 1.9 3.7 0 6.3-1.9 7.7-5.5.7-2.1 1.1-4.3 1.1-7.4 0-3-.4-5.2-1.1-7-1.4-3.4-3.8-4.9-7.4-4.9-2.4 0-4.3.9-5.8 2.5-1.5 1.5-2.2 3.7-2.2 6.2.1 2.1.8 4 2.2 5.2"/><path clip-path="url(#a)" d="m450.8 581.4h4.6c0 .9.2 1.9.4 2.4.6.9 1.6 1.6 3.2 1.6.9 0 1.7-.3 2.3-.9.7-.6 1.1-1.5 1.1-2.8 0-1.5-.7-2.5-1.9-3.1-.8-.3-2-.3-3.5-.3v-3.4c1.5 0 2.6-.3 3.2-.6 1-.3 1.6-1.2 1.6-2.8 0-.9-.3-1.5-.8-2.1s-1.3-.9-2.3-.9c-1.1 0-1.9.3-2.4.9-.5.9-.7 1.8-.7 3.1h-4.4c0-1.2.2-2.5.6-3.4s1-1.8 1.8-2.7c.6-.7 1.4-1 2.2-1.3.9-.3 1.9-.3 3.1-.3 2.3 0 4.1.3 5.5 1.6 1.4 1.2 2.2 2.7 2.2 4.9 0 1.2-.4 2.5-1.3 3.4-.5.6-1.1 1.2-1.6 1.2.4 0 1 .6 1.9 1.2 1.1 1.2 1.7 2.8 1.7 4.6s-.7 3.7-2.1 5.2c-1.4 1.6-3.4 2.5-6.2 2.5-3.4 0-5.8-1.2-7.1-3.4-.6-1.2-1-2.8-1.1-4.6"/><path clip-path="url(#a)" d="m436.5 577.7c.6-.6 1.3-.9 2-.9 1 0 1.8.6 2.5 1.2s1 1.9 1 3.1-.3 2.4-.8 3c-.6.9-1.5 1.2-2.5 1.2s-1.9-.3-2.6-1.2c-.7-.6-1-1.8-1-3 0-1.6.4-2.8 1.4-3.4m7.6-11.3c-1.4-1.3-3.2-1.9-5.3-1.9-1.5 0-2.9.3-4 .9-1.1 1-2 1.9-2.7 3.1s-1.3 2.8-1.6 4.9c-.2 1.2-.2 2.7-.2 4.6 0 3.1.5 5.5 1.7 7.4 1.4 2.8 3.6 4 6.7 4 2.8 0 4.8-.9 6.1-2.7 1.4-1.6 2-3.7 2-5.8s-.7-4-2-5.5c-1.4-1.5-3.2-2.1-5.2-2.1-1 0-1.9.3-2.7.6s-1.4.6-2 1.5c.2-1.8.4-3.4.7-4.3.7-1.9 1.8-2.5 3.3-2.5 1 0 1.8.3 2.3.9.3.6.5.9.5 1.2h4.7c-.3-1.9-.9-3.5-2.3-4.3"/><path clip-path="url(#a)" d="m407.3 585.1h-2.9v-19.7h-3.9c0 .3-.1.6-.2 1-.2.6-.5 1.2-.9 1.8-.6.6-1.4.9-2.3 1.2h-1v3.4h3.5v12.3h-3.5v4h11.1v-4z"/><path clip-path="url(#a)" d="m585.1 653.2-26.5-6.5 22.4-1.7-18-36.8c-19.9 5.9-36.7-6.2-43.1-7.1-7.7-1.2-12.1 1.9-18 6.8-5.4-5.9-12.7-8.9-20.2-6.8-13.7 2.7-22 11.1-41.5 6.4l-17.4 35.9 22.9 3.7-26.7 4-6.4 12.6 79.3-10.5c1.9 2.8 5.9 6.2 10 5.9 3.4-.6 6.6-2.5 8.4-5.6l81.2 10.8zm-83.5-.3c-3.1-.3-4.6-3.7-4.5-4-.4-3.4 3.6-13.5 4.5-18.4.9 4.9 5 15.4 4.3 18.4 0 .3-1.2 3.7-4.3 4"/><path d="m744.7 629 2.3-5.2-54.4-27-1.8 4z"/></g></g></svg>